<mxfile host="app.diagrams.net" modified="2023-08-22T03:04:08.616Z" agent="Mozilla/5.0 (Windows NT 10.0; Win64; x64) AppleWebKit/537.36 (KHTML, like Gecko) Chrome/116.0.0.0 Safari/537.36" etag="ih4j9SsGQq1cXP1cJQAu" version="21.6.8" type="github">
  <diagram name="Page-1" id="xxmcp6YF0e_VFWHfpipe">
    <mxGraphModel dx="794" dy="456" grid="1" gridSize="10" guides="1" tooltips="1" connect="1" arrows="1" fold="1" page="1" pageScale="1" pageWidth="850" pageHeight="1100" math="0" shadow="0">
      <root>
        <mxCell id="0" />
        <mxCell id="1" parent="0" />
        <mxCell id="ft071pA1ukmDuW8F-zMg-1" value="Player&lt;br&gt;(komputer)" style="shape=umlActor;verticalLabelPosition=bottom;verticalAlign=top;html=1;outlineConnect=0;" vertex="1" parent="1">
          <mxGeometry x="120" y="200" width="80" height="160" as="geometry" />
        </mxCell>
        <mxCell id="ft071pA1ukmDuW8F-zMg-2" value="Player&lt;br&gt;(user)" style="shape=umlActor;verticalLabelPosition=bottom;verticalAlign=top;html=1;outlineConnect=0;" vertex="1" parent="1">
          <mxGeometry x="600" y="200" width="80" height="160" as="geometry" />
        </mxCell>
        <mxCell id="ft071pA1ukmDuW8F-zMg-4" value="" style="rounded=0;whiteSpace=wrap;html=1;" vertex="1" parent="1">
          <mxGeometry x="280" y="120" width="240" height="320" as="geometry" />
        </mxCell>
        <mxCell id="ft071pA1ukmDuW8F-zMg-5" value="" style="ellipse;whiteSpace=wrap;html=1;" vertex="1" parent="1">
          <mxGeometry x="325" y="310" width="150" height="80" as="geometry" />
        </mxCell>
        <mxCell id="ft071pA1ukmDuW8F-zMg-6" value="" style="ellipse;whiteSpace=wrap;html=1;" vertex="1" parent="1">
          <mxGeometry x="325" y="190" width="150" height="80" as="geometry" />
        </mxCell>
        <mxCell id="ft071pA1ukmDuW8F-zMg-7" value="Game Tebak Angka" style="text;html=1;strokeColor=none;fillColor=none;align=center;verticalAlign=middle;whiteSpace=wrap;rounded=0;" vertex="1" parent="1">
          <mxGeometry x="290" y="130" width="110" height="30" as="geometry" />
        </mxCell>
        <mxCell id="ft071pA1ukmDuW8F-zMg-8" value="Tebak Angka" style="text;html=1;strokeColor=none;fillColor=none;align=center;verticalAlign=middle;whiteSpace=wrap;rounded=0;" vertex="1" parent="1">
          <mxGeometry x="340" y="215" width="120" height="30" as="geometry" />
        </mxCell>
        <mxCell id="ft071pA1ukmDuW8F-zMg-9" value="Random Angka" style="text;html=1;strokeColor=none;fillColor=none;align=center;verticalAlign=middle;whiteSpace=wrap;rounded=0;" vertex="1" parent="1">
          <mxGeometry x="340" y="335" width="120" height="30" as="geometry" />
        </mxCell>
        <mxCell id="ft071pA1ukmDuW8F-zMg-10" value="" style="endArrow=none;html=1;rounded=0;entryX=0;entryY=0.5;entryDx=0;entryDy=0;" edge="1" parent="1" source="ft071pA1ukmDuW8F-zMg-1" target="ft071pA1ukmDuW8F-zMg-6">
          <mxGeometry width="50" height="50" relative="1" as="geometry">
            <mxPoint x="290" y="320" as="sourcePoint" />
            <mxPoint x="340" y="270" as="targetPoint" />
          </mxGeometry>
        </mxCell>
        <mxCell id="ft071pA1ukmDuW8F-zMg-14" value="" style="endArrow=none;html=1;rounded=0;exitX=1;exitY=0.5;exitDx=0;exitDy=0;" edge="1" parent="1" source="ft071pA1ukmDuW8F-zMg-5" target="ft071pA1ukmDuW8F-zMg-2">
          <mxGeometry width="50" height="50" relative="1" as="geometry">
            <mxPoint x="380" y="330" as="sourcePoint" />
            <mxPoint x="430" y="280" as="targetPoint" />
          </mxGeometry>
        </mxCell>
      </root>
    </mxGraphModel>
  </diagram>
</mxfile>
